<?xml version="1.0" encoding="utf-8"?>
<!-- Generator: Adobe Illustrator 23.0.3, SVG Export Plug-In . SVG Version: 6.00 Build 0)  -->
<svg version="1.1" id="Layer_1" xmlns="http://www.w3.org/2000/svg" xmlns:xlink="http://www.w3.org/1999/xlink" x="0px" y="0px"
	 viewBox="0 0 400 200.9" style="enable-background:new 0 0 400 200.9;" xml:space="preserve">
<style type="text/css">
	.st0{fill:#FFFFFF;}
</style>
<title>456163A5-F4F6-431F-832E-33529751ACD0</title>
<g id="_x21B3_-Symbols">
	<g id="UI_x2F_Icons_x2F_Logo_x2F_Dark">
		<g id="Logo">
			<path id="Combined-Shape" class="st0" d="M199,173h9.6l1.2,2.8h-12l0.2-0.9l-4,9.2c-0.9,2.4,0.7,2.1,1.6,2.1h3.5
				c1.6,0,1.6,2.8,0,2.8h-13.9c-1.6,0-1.6-2.8,0-2.8h1.9c0.9,0,1.6,0,2.6-2.1c0,0,15.1-33.6,15.3-33.9c0.5-0.7,0.7-0.7,1.2-0.7h2.1
				c0.2,0,0.7-0.2,1.2,0.7c0.2,0.7,15.3,33.9,15.3,33.9c0.9,2.1,2.1,2.1,2.8,2.1h1.4c1.6,0,1.6,2.8,0,2.8h-19.1
				c-1.6,0-1.6-2.8,0-2.8h1.9c0.9,0,2.4,0,1.4-2.1l-9.6-23.1C203.7,161,199,173,199,173z M264.4,173h9.6l1.2,2.8h-12l0.2-0.9l-4,9.2
				c-0.9,2.4,0.7,2.1,1.6,2.1h3.5c1.6,0,1.6,2.8,0,2.8h-13.9c-1.6,0-1.6-2.8,0-2.8h1.9c0.9,0,1.6,0,2.6-2.1c0,0,15.1-33.4,15.3-33.6
				c0.2-0.2,0.5-0.9,1.2-0.9h2.1c0.2,0,0.7-0.2,1.2,0.7c0.2,0.7,15.3,33.9,15.3,33.9c0.9,2.1,2.1,2.1,2.8,2.1h1.4
				c1.6,0,1.6,2.8,0,2.8h-19.1c-1.6,0-1.6-2.8,0-2.8h1.9c0.9,0,2.4,0,1.4-2.1l-9.6-23.1C269.1,161,264.4,173,264.4,173z M347,184.3
				c0,1.6,1.4,2.1,2.4,2.1h1.9c1.6,0,1.6,2.6,0,2.6h-18.4c-1.6,0-1.6-2.6,0-2.6h1.9c0.9,0,2.4-0.5,2.4-2.1v-28.5
				c0-1.6-1.4-2.1-2.4-2.1h-1.9c-1.6,0-1.6-2.6,0-2.6h18.4c1.6,0,1.6,2.6,0,2.6h-1.9c-0.9,0-2.4,0.5-2.4,2.1
				C347,155.9,347,184.3,347,184.3z M235,156.1l8.9,22.1l9.6-22.1c0.9-2.4-0.7-2.1-1.6-2.1h-1.6c-1.6,0-1.6-2.8,0-2.8h11.8
				c1.6,0,1.6,2.8,0,2.8h-1.9c-0.9,0-1.4,0-2.6,2.1c0,0-14.8,33.6-15.1,33.9c-0.5,0.7-0.5,0.7-0.9,0.7H240c-0.2,0-0.7,0-0.9-0.7
				c-0.2-0.7-15.1-33.9-15.1-33.9c-0.9-2.1-1.9-2.1-2.8-2.1h-1.4c-1.6,0-1.6-2.8,0-2.8h18.8c1.6,0,1.6,2.8,0,2.8h-1.9
				C235.7,154,234.3,154,235,156.1z M132.2,162.9l7.5,7.3l-7.5,7.3l-7.5-7.3L132.2,162.9z M0,180.1c0-1.2,2.8-1.6,2.8,0
				c0,3.1,1.4,9.2,9.4,9.2s8.7-5.6,8.7-7.5c0-8.5-20-6.6-20-19.5c0-9.4,8.5-12.5,14.8-12.5c5.6,0,8.2,1.4,8.9,1.9
				c0.7,0.5,0.7,0.9,0.7,1.6v7.1c0,0.9-1.6,1.6-2.1,0c-0.7-1.6-2.8-8-7.5-8c-5.4,0-7.3,3.8-7.3,6.1c0,8.7,20,5.2,20,19.5
				c0,8-7.5,14.4-16.2,14.4s-11.3-3.5-12-4.2L0,180.1z M112.5,179.6c0.7-1.2,2.1-0.9,2.1,0.7v5.2c0,0.2,0,0.7-0.5,0.9
				c-0.5,0.2-5.2,4.2-12.7,4.2c-11.3,0-24-6.6-24-20.7c0-12.5,13.2-20.2,24.5-20.2c3.3,0,9.2,1.4,10.4,1.9c1.2,0.5,1.2,0.9,1.4,1.4
				c0,0.5,0.5,4.2,0.7,5.2c0.2,0.9-1.4,2.1-2.4,0.2c-1.4-1.6-3.8-6.1-10.4-6.1c-6.6,0-13.9,4.9-13.9,17.6c0,12.7,8,17.9,13.6,17.9
				C105.2,188.1,109.9,186.2,112.5,179.6z M371,151.1l20,24.5v-19.8c0-1.6-1.4-2.1-2.4-2.1h-1.9c-1.6,0-1.6-2.8,0-2.8h12
				c1.6,0,1.6,2.8,0,2.8h-1.9c-0.9,0-2.4,0.5-2.4,2.1v33.9c0,0.2-0.2,0.7-0.7,0.7h-3.1c-0.2,0-0.5,0-0.7-0.2
				c-0.2-0.2-25.9-31.8-25.9-31.8v26.1c0,1.6,1.4,2.1,2.4,2.1h1.9c1.6,0,1.6,2.8,0,2.8h-12c-1.6,0-1.6-2.8,0-2.8h1.9
				c0.9,0,2.4-0.5,2.4-2.1v-28c0-1.9-1.4-2.6-2.6-2.6h-1.6c-1.6,0-1.6-2.8,0-2.8H371L371,151.1z M46.8,151.1l20,24.5v-19.8
				c0-1.6-1.4-2.1-2.4-2.1h-1.9c-1.6,0-1.6-2.8,0-2.8h12c1.6,0,1.6,2.8,0,2.8h-1.9c-0.9,0-2.4,0.5-2.4,2.1v33.9
				c0,0.2-0.2,0.7-0.7,0.7h-3.1c-0.2,0-0.5,0-0.7-0.2S40,158.4,40,158.4v26.1c0,1.6,1.4,2.1,2.4,2.1h1.9c1.6,0,1.6,2.8,0,2.8h-12
				c-1.6,0-1.6-2.8,0-2.8h1.9c0.9,0,2.4-0.5,2.4-2.1v-28c0-1.9-1.4-2.6-2.6-2.6h-1.6c-1.6,0-1.6-2.8,0-2.8
				C32.2,151.1,46.8,151.1,46.8,151.1z M172.2,187.4c1.6,0,6.4,0,9.6-6.6c0.5-1.4,2.8-1.2,2.6,0.5l-1.2,7.1c0,0.5-0.5,0.9-1.2,0.9
				h-29.2c-1.6,0-1.6-2.6,0-2.6h1.9c0.9,0,2.4-0.5,2.4-2.1v-28.7c0-1.6-1.4-2.1-2.4-2.1h-1.9c-1.6,0-1.6-2.6,0-2.6h18.6
				c1.6,0,1.6,2.6,0,2.6h-1.9c-0.9,0-2.4,0.5-2.4,2.1v27.1C167.3,186.4,169.4,187.4,172.2,187.4z M317.8,187.4c1.6,0,6.4,0,9.6-6.6
				c0.5-1.4,2.8-1.2,2.6,0.5l-1.2,7.1c0,0.5-0.5,0.9-1.2,0.9h-29.2c-1.6,0-1.6-2.6,0-2.6h1.9c0.9,0,2.4-0.5,2.4-2.1v-28.7
				c0-1.6-1.4-2.1-2.4-2.1h-1.9c-1.6,0-1.6-2.6,0-2.6h18.6c1.6,0,1.6,2.6,0,2.6h-1.9c-0.9,0-2.4,0.5-2.4,2.1v27.1
				C312.9,186.4,315,187.4,317.8,187.4z"/>
			<path id="Combined-Shape_1_" class="st0" d="M77.6,60.3l27.3-27.8l27.3,27.8l-27.3,27.8L77.6,60.3z M110.6,103.2
				c12.9-5.6,37.6-32.2,37.6-42.1s-25.4-36.9-38.3-42.1c4.2-3.3,8.9-5.6,13.9-7.5c18.1,10.4,36.5,33.2,36.5,49.6
				c0,16.2-17.6,38.6-35.5,49.2C119.7,108.8,114.8,106.4,110.6,103.2z M145.6,8.6c26.6,2.1,47.3,24.5,47.3,51.8
				c0,26.8-20,48.9-45.9,51.8c15.5-13.2,26.6-32.5,26.6-51.3C173.9,41.5,161.9,21.8,145.6,8.6z"/>
		</g>
	</g>
</g>
</svg>
